<?xml version="1.0" standalone="no"?>
<!DOCTYPE svg PUBLIC "-//W3C//DTD SVG 20010904//EN"
 "http://www.w3.org/TR/2001/REC-SVG-20010904/DTD/svg10.dtd">
<svg version="1.0" xmlns="http://www.w3.org/2000/svg"
 width="180.000000pt" height="180.000000pt" viewBox="0 0 180.000000 180.000000"
 preserveAspectRatio="xMidYMid meet">

<g transform="translate(0.000000,180.000000) scale(0.100000,-0.100000)"
fill="#000000" stroke="none">
<path d="M297 812 c5 -52 3 -61 -18 -80 -12 -12 -18 -22 -13 -22 16 0 50 42
57 68 6 26 -10 92 -23 92 -4 0 -6 -26 -3 -58z"/>
<path d="M98 773 c-17 -19 -17 -21 12 -48 35 -33 45 -30 25 8 -7 14 -15 34
-17 43 -3 14 -5 14 -20 -3z"/>
<path d="M178 693 c12 -2 32 -2 45 0 12 2 2 4 -23 4 -25 0 -35 -2 -22 -4z"/>
</g>
</svg>
